<svg preserveAspectRatio="none" overflow="visible" style="display: block;" width="79.0185" height="83.758" viewBox="0 0 79.0185 83.758" fill="none" xmlns="http://www.w3.org/2000/svg">
<g id="Banana">
<g id="Union">
<path d="M61.7711 6.69246C62.9926 5.73534 64.3872 5.78102 65.8365 6.03621C67.5048 6.32794 69.1732 6.58349 70.4039 7.87801C72.2817 9.84706 70.0855 14.5047 68.5357 17.1212L68.4537 17.2423C68.4887 17.2058 68.5206 17.17 68.5445 17.1309L67.5602 19.3917C71.1063 22.4183 72.9022 26.7034 73.1393 31.2706V34.6886L72.7018 39.2745C71.152 48.956 67.2497 56.9969 59.9293 63.5333C55.2892 67.6811 50.0472 70.7072 44.0123 72.3116C38.3784 73.8067 32.7624 74.2173 26.9918 73.6065C22.06 73.0869 17.3834 71.8563 13.108 69.3585C11.4579 68.3921 10.1545 67.2884 8.91465 65.9757L8.90488 65.9766C7.54664 64.5364 6.1707 62.9498 5.92441 60.7804C5.62357 58.0728 6.89081 55.5561 8.91465 53.9425C8.91762 53.9437 8.92047 53.9452 8.92343 53.9464V53.9425C10.1237 52.9786 11.4421 52.1869 12.9234 51.7667C12.9332 51.7627 12.943 51.7589 12.9527 51.755C14.8306 50.8525 16.9274 50.3777 19.0787 50.1407C24.594 49.5481 31.7507 47.5429 36.2906 44.4708C43.5289 39.5754 47.3671 32.4464 51.3053 24.88C53.0738 21.4887 55.7998 18.8721 59.5465 17.7325C59.51 13.858 59.2459 9.49119 61.7711 6.69246Z" fill="white"/>
</g>
<g id="Group">
<path id="Vector" d="M8.9055 65.9761L9.06048 65.4929C10.9385 64.0617 10.7288 60.1507 10.5282 57.9537C10.4097 56.6774 9.98124 55.3373 9.01491 54.453L8.92374 53.9425C10.1271 52.9762 11.449 52.183 12.9349 51.7637C12.233 52.6298 10.5556 52.7118 9.45249 53.979C11.3396 55.5834 11.4854 59.3485 11.1937 61.9467L10.9567 64.0617L13.5093 65.5659C17.2834 67.3891 22.5892 68.1458 26.8739 68.164H28.533C41.7609 67.5168 53.6122 62.1199 61.2152 51.1164L62.6647 48.7918C64.8982 45.209 66.1198 41.2981 66.7944 37.1502L67.1317 35.0807L67.5511 29.9209L67.5875 27.8423C67.6422 24.9069 67.2229 22.0717 66.1107 19.2821C66.0104 19.0268 66.0469 18.6531 66.1927 18.571C66.5483 18.3705 67.1408 18.9357 67.469 18.6895C67.5875 18.5984 67.8155 18.3158 67.8246 18.1425C67.8519 17.5956 68.3715 17.4132 68.5448 17.1306L67.5602 19.3915C71.1065 22.4181 72.9024 26.7028 73.1394 31.2701V34.6887L72.7018 39.2743C71.152 48.9558 67.2502 56.9965 59.9298 63.5329C55.2896 67.6809 50.0477 70.7075 44.0126 72.312C38.3787 73.807 32.763 74.2173 26.9924 73.6065C22.0604 73.0869 17.3837 71.8562 13.1081 69.3583C11.4581 68.3919 10.1545 67.2889 8.91463 65.9761H8.9055Z" fill="#FDD803"/>
<path id="Vector_2" d="M8.90543 65.9762C7.54709 64.5358 6.17052 62.9496 5.92438 60.7799C5.62354 58.0723 6.89072 55.5562 8.91456 53.9426C10.0085 54.3802 10.9202 56.7049 10.9202 57.9447V62.5211C10.9293 63.5695 10.0906 65.6845 8.90543 65.9762Z" fill="#AF714A"/>
<g id="Group_2">
<path id="Vector_3" d="M68.5355 17.1216L68.0615 17.8327C67.788 19.0087 67.241 19.3643 66.4388 18.9176C67.9521 22.5185 67.9886 26.1833 67.943 29.9301C67.8609 36.7674 65.8189 45.747 61.6071 51.2077C57.1036 57.0422 53.2109 60.9531 46.4557 64.2077C38.7797 67.8998 29.4355 69.3857 21.0484 68.1003C17.4019 67.5442 13.4818 66.5414 10.7196 64.1803C11.221 61.6186 11.5674 57.7077 10.3458 55.3374C10.0814 54.8178 9.75322 54.3164 9.26094 53.9791C10.3367 53.0492 11.5674 52.3108 12.9531 51.7547C14.831 50.8522 16.9278 50.3781 19.0793 50.1411C24.5947 49.5485 31.751 47.5429 36.291 44.4707C43.5294 39.5752 47.3673 32.4462 51.3056 24.8796C53.0742 21.4884 55.8 18.872 59.5468 17.7324C59.5103 13.858 59.246 9.49124 61.7712 6.69252C62.9928 5.7353 64.3876 5.78088 65.8371 6.03614C67.5054 6.32786 69.1737 6.58311 70.4044 7.87763C72.2824 9.84677 70.0853 14.5052 68.5355 17.1216Z" fill="#FDD803"/>
</g>
</g>
</g>
</svg>
