<svg preserveAspectRatio="none" overflow="visible" style="display: block;" width="60.6992" height="81.9941" viewBox="0 0 60.6992 81.9941" fill="none" xmlns="http://www.w3.org/2000/svg">
<g id="SpringOnion">
<g id="Union">
<path d="M40.2522 6.53962C40.9115 5.14766 42.5561 4.65026 43.8743 5.23201C46.7732 6.51667 50.1995 8.09057 48.9788 10.2496L41.2639 23.9166L49.4905 16.9752C50.3447 16.2523 51.7608 15.8356 52.7258 16.6998C55.0495 18.778 56.8855 22.9648 54.801 24.3775C50.1231 27.5489 45.9254 31.0094 41.6409 34.776C37.9684 38.0045 34.9519 41.7343 32.0833 45.4908C29.7292 48.5746 27.6573 52.0854 26.2717 55.6871C25.6001 57.4338 25.3571 59.2974 25.1067 61.2164C25.0274 61.8245 24.9475 62.4388 24.8528 63.0562C24.0959 67.9862 19.9425 71.4092 15.009 71.3453C14.5406 71.3387 13.9773 71.5197 13.7854 71.7154C13.7847 71.7176 13.7851 71.7201 13.7844 71.7222H13.7815C13.4217 72.257 12.7456 73.1685 12.1907 72.9635L10.428 72.3111C8.86466 72.4387 8.29957 71.477 7.65064 70.3775C7.34797 69.8663 5.76094 69.8522 6.02662 68.7222C6.1444 68.2212 6.46387 67.5149 7.09595 67.2291L7.09791 67.2281L7.09595 67.2261L5.43775 64.3609C3.87058 59.3063 6.73314 54.1638 11.6936 52.3511C13.3009 51.7627 14.7096 51.0934 15.7688 49.8795C17.6387 47.7372 19.4449 45.4301 20.6926 42.8472C23.3528 37.3386 25.2431 26.506 24.8665 20.5064L24.221 10.2564C24.0864 8.11768 26.6751 7.44789 28.471 7.12165C30.0583 6.83243 32.5169 6.83277 32.8801 8.78669C33.4076 11.6383 33.2113 14.4621 33.0081 17.3814C32.8952 19.0031 32.7804 20.6543 32.7864 22.356L40.2522 6.53962Z" fill="white"/>
</g>
<g id="Group">
<path id="Vector" d="M32.0832 45.4906L30.6068 45.4099C29.0934 46.4222 27.274 46.4558 27.5666 44.3606C24.1901 47.1553 22.8886 45.4906 24.7484 41.7375C23.6285 43.8326 20.4774 47.115 20.6926 42.8473C23.3527 37.3386 25.2428 26.5063 24.8661 20.5066L24.2204 10.2561C24.0859 8.11722 26.6754 7.44798 28.4713 7.12176C30.0586 6.83254 32.517 6.83255 32.8802 8.78647C33.7008 13.2223 32.7692 17.5909 32.786 22.3563L40.252 6.53996C40.9111 5.14767 42.5557 4.64994 43.874 5.23174C46.7729 6.51642 50.1998 8.09032 48.979 10.2494L41.2643 23.9167L49.4902 16.9755C50.3444 16.2524 51.7603 15.8354 52.7255 16.6997C55.0493 18.778 56.8855 22.965 54.8005 24.3775C50.1225 27.5488 45.9254 31.0094 41.6409 34.776C37.9685 38.0045 34.9552 41.7274 32.0865 45.4839L32.0832 45.4906Z" fill="#559036"/>
<path id="Vector_2" d="M26.2718 55.6872C25.3873 57.9875 25.2461 60.4896 24.8526 63.0556C24.0959 67.9858 19.9425 71.4094 15.009 71.3455C14.5348 71.3388 13.9631 71.5238 13.7781 71.7222C12.5237 70.1785 10.9061 68.9006 8.92861 67.8883C8.12484 67.9018 7.51279 67.6832 7.09577 67.2258L5.4378 64.3605C3.87062 59.3058 6.73256 54.1638 11.693 52.3511C13.3006 51.7626 14.7097 51.0866 15.769 49.8725C16.3508 49.8725 16.6737 50.0474 16.7342 50.3938C20.0367 46.8694 22.0041 48.2852 20.1342 52.721C22.6935 50.7099 24.217 50.8142 23.8437 54.4429C25.6631 52.1998 25.9691 53.8914 26.2751 55.6872H26.2718Z" fill="#FAE4D1"/>
<path id="Vector_3" d="M32.083 45.4907C29.7289 48.5746 27.6572 52.0856 26.2717 55.6874C25.8715 55.8421 25.4444 55.6201 25.4141 55.3511C25.367 54.9576 25.5957 54.5406 25.1148 53.8747C24.7045 54.8298 24.126 55.9127 23.0129 56.1347L23.0196 51.9544C21.4356 52.6943 20.6924 53.7032 18.8898 54.0429L20.2922 49.1766C18.5064 48.8672 17.4101 51.9645 16.2162 50.9926C15.9774 50.7976 15.8227 50.3368 15.7689 49.8794C17.6388 47.7372 19.4447 45.4335 20.6924 42.8507C21.2338 43.1433 21.3919 43.7385 21.3078 44.4212C23.7662 42.8742 24.4355 39.4137 27.0014 37.8734L24.4186 45.1376C26.4701 44.6802 27.4252 43.0996 29.0226 41.9965L28.1852 45.3091C29.4195 45.336 30.1862 44.7239 31.1951 44.021C31.6256 44.4414 31.6727 44.9459 32.083 45.4974V45.4907Z" fill="#9EC148"/>
<path id="Vector_4" d="M13.7813 71.7223C13.4215 72.257 12.7455 73.1684 12.1906 72.9633L10.4284 72.3108C8.86458 72.4386 8.29959 71.4768 7.65053 70.3771C7.34785 69.8659 5.76052 69.8525 6.0262 68.7225C6.1439 68.2214 6.46339 67.5152 7.09564 67.2293C7.80188 66.9098 8.75696 66.7787 9.56073 67.2999L13.0549 69.5767C13.8351 70.0879 14.0235 70.969 13.7847 71.7223H13.7813Z" fill="#DCAC7C"/>
</g>
</g>
</svg>
