<svg preserveAspectRatio="none" overflow="visible" style="display: block;" width="79.6581" height="89.089" viewBox="0 0 79.6581 89.089" fill="none" xmlns="http://www.w3.org/2000/svg">
<g id="Broccoli">
<g id="Union">
<path d="M25.1143 11.1537C29.828 4.63502 39.4051 3.17036 45.8643 7.99354C47.2256 9.01161 47.9357 9.2132 49.6446 8.75916C56.6637 6.90237 63.1667 11.7551 64.0743 19.4496C70.9324 21.3723 73.2714 28.1763 71.3721 34.6586C73.0885 37.8045 75.3099 41.4963 74.2413 45.5834C73.4361 48.6561 71.5403 52.5162 67.8916 53.9408C66.2119 54.5964 65.6771 55.4754 64.4073 56.6547C60.3889 60.3899 53.5787 59.5803 49.8057 55.9144H49.7911C45.158 60.5436 42.7058 66.6709 42.2373 73.4828C42.0031 76.9107 40.0966 79.6717 36.4297 79.8988C31.8699 80.1808 27.1893 79.1589 23.3614 76.7455C21.0156 75.2696 20.7629 72.7424 21.7657 70.3363C24.8317 62.9803 25.1611 55.3134 22.1036 48.1439C17.4344 50.3106 12.1552 49.318 8.58402 45.3597C3.12385 39.3023 4.3972 30.0443 10.8125 25.309C10.743 21.925 11.1016 18.5667 13.4913 16.1312C18.179 11.3558 23.5841 13.0402 24.3457 12.5863C24.6641 12.3995 24.7081 11.7177 25.1143 11.1537Z" fill="white"/>
</g>
<g id="Group">
<path id="Vector" d="M49.7907 55.9149C49.465 54.5488 50.3909 53.2634 52.5684 52.0658C52.7001 51.5421 46.5227 50.4177 46.197 50.5056C45.2674 51.564 41.3297 55.6658 40.0817 54.9297C39.3681 54.5086 39.4157 53.5234 39.4962 52.769L40.8136 46.3233L37.165 47.3268C35.0936 47.6307 31.1961 48.1361 30.4276 45.9241C29.9116 47.2206 28.854 46.6273 29.0809 45.3748C28.5356 45.6714 27.9134 45.7337 27.2145 45.5652C25.9446 46.7738 24.5612 47.8212 23.0644 48.7075L22.1056 48.1435C17.4359 50.3116 12.1551 49.3191 8.58325 45.3601C3.12308 39.3027 4.39664 30.0443 10.812 25.309C10.7424 21.925 11.1011 18.5667 13.4908 16.1313C18.1788 11.3556 23.5841 13.0403 24.3453 12.5862C24.6637 12.3994 24.7076 11.7182 25.1138 11.1542C29.8274 4.6353 39.4047 3.17038 45.8639 7.99363C47.2253 9.01175 47.9353 9.21317 49.6443 8.75904C56.6635 6.90225 63.1667 11.7548 64.0743 19.4493C70.9324 21.372 73.2709 28.1766 71.3716 34.6589C73.0879 37.8048 75.3094 41.4964 74.2407 45.5835C73.4356 48.6562 71.5399 52.5162 67.8913 53.9409C66.2115 54.5964 65.6772 55.4754 64.4073 56.6547C60.389 60.3902 53.5784 59.5808 49.8054 55.9149H49.7907Z" fill="#5C9F34"/>
<g id="Group_2">
<path id="Vector_2" d="M29.0809 45.3711C28.8833 46.3783 29.6188 46.4955 30.4276 45.9205C34.208 47.2462 37.9335 46.62 42.0652 44.7705C41.4724 48.4182 40.2208 51.1356 40.4074 54.45L44.0012 51.5201L46.164 49.1653C50.0945 51.3553 52.627 49.3923 53.4431 51.8571C53.626 52.4064 52.938 53.2231 52.1731 53.6003C50.9216 54.2193 50.4971 55.2081 49.7907 55.9149C45.1576 60.544 42.7057 66.6711 42.2373 73.4829C42.003 76.9109 40.0964 79.6722 36.4294 79.8993C31.8695 80.1813 27.1888 79.1595 23.3609 76.7461C21.015 75.2702 20.7625 72.7432 21.7653 70.337C24.832 62.9795 25.1614 55.3106 22.1019 48.1398C26.5301 46.0853 26.2264 43.1957 29.0809 45.3711Z" fill="#ACCF3E"/>
<path id="Vector_3" d="M30.4276 45.9241L30.2702 49.6963L28.4843 46.2208C28.2172 45.7007 28.5209 45.2979 29.0809 45.3748C29.3883 45.6092 30.0653 45.7996 30.4276 45.9241Z" fill="#D4E8B2"/>
</g>
</g>
</g>
</svg>
