<svg preserveAspectRatio="none" overflow="visible" style="display: block;" width="67.4439" height="82.7934" viewBox="0 0 67.4439 82.7934" fill="none" xmlns="http://www.w3.org/2000/svg">
<g id="Mushroom">
<g id="Union">
<path d="M11.4949 15.257C17.9353 7.98265 27.6001 4.35922 37.1912 5.65644L37.1726 5.66523C40.9812 6.17489 44.41 7.22257 47.8015 9.04804C55.3354 13.1069 61.4335 20.2514 62.0173 28.9992C62.2305 32.1776 61.304 35.208 59.2654 37.5617C57.4769 39.6374 55.3082 41.2869 52.6394 41.8615L46.9959 43.0666L46.9929 43.0773L47.0144 43.0754C46.6437 49.1266 49.5629 53.9643 49.2478 60.1545C48.942 66.2057 44.9018 71.1176 39.1101 72.6652C32.855 74.3425 24.7089 73.2111 20.5574 68.4758V68.467C20.5537 68.461 20.5524 68.4538 20.5496 68.4475C18.6087 66.2254 17.462 63.5694 17.3972 60.5158C17.3324 57.4578 17.8609 54.5477 18.9822 51.6935C20.1034 48.8396 20.7798 46.3008 21.0115 43.3635C21.0297 43.127 20.9225 42.9263 20.866 42.84C17.882 42.4608 15.0359 42.0158 12.3191 40.7775C7.7507 38.6925 5.14705 34.4758 5.41579 29.3791C5.68457 24.2824 7.97359 19.2324 11.4949 15.257Z" fill="white"/>
</g>
<g id="Group">
<path id="Vector" d="M37.1731 5.66541C37.1731 5.75808 37.1731 5.8322 37.1545 5.84147C36.9043 5.9434 36.6078 5.71173 37.1731 5.81367C44.5865 7.03689 50.332 16.2574 51.6015 23.1705C53.7978 35.1618 47.2832 42.8996 35.19 43.539L35.227 43.7799C34.9583 43.8818 34.6988 43.9838 34.4208 44.0487C34.1428 44.1135 33.8833 44.1784 33.6146 44.1784C29.8708 44.1228 26.1455 43.8818 22.4295 43.4463C22.17 43.4185 21.9106 43.3166 21.6511 43.2146C21.3916 43.1127 21.1322 42.983 20.8912 42.844C17.898 42.464 15.0439 42.0192 12.3194 40.7775C7.75085 38.6924 5.14686 34.476 5.4156 29.3792C5.68433 24.2825 7.97326 19.2321 11.4947 15.2566C17.9351 7.98211 27.6004 4.35878 37.1916 5.65613L37.1731 5.66541Z" fill="#C6937E"/>
<path id="Vector_2" d="M35.2271 43.7707C35.2456 43.641 35.2734 43.5298 35.3198 43.5298C36.2001 43.3815 38.9431 43.1962 39.7771 43.3352L40.0737 43.7336L40.6204 44.1784C43.1502 52.6205 44.7997 63.472 35.7275 68.5873C31.1868 71.1449 25.0428 71.4322 20.6967 68.3927C20.8913 68.4761 20.845 68.5039 20.5577 68.4576C18.6117 66.2335 17.4626 63.5739 17.3977 60.5159C17.3328 57.4578 17.861 54.548 18.9823 51.6938C20.1036 48.8397 20.7801 46.3005 21.0118 43.363C21.0303 43.122 20.9191 42.9182 20.8635 42.8348C25.6452 43.4464 30.3713 43.7985 35.2086 43.7614L35.2271 43.7707Z" fill="#F0D6BF"/>
<path id="Vector_3" d="M37.173 5.66537C40.9816 6.17505 44.4104 7.2222 47.802 9.04776C55.336 13.1066 61.4335 20.2514 62.0173 28.9993C62.2305 32.1778 61.3038 35.208 59.2651 37.5618C57.4766 39.6376 55.3082 41.2871 52.6393 41.8616L46.9958 43.0663L46.8939 43.4833C46.1062 43.6038 40.5739 44.3359 40.3237 44.1135C40.2032 44.0115 40.1198 43.8725 40.0457 43.7335L35.1991 43.7706C34.569 43.3907 33.8276 43.7706 33.077 43.4555C36.515 43.2887 39.8881 42.6957 43.1315 41.2964C47.9225 39.2299 51.0639 34.893 51.4902 29.6109C52.0184 23.05 49.8685 16.4705 45.5038 11.5961C43.0481 8.86243 40.1291 6.82372 36.7374 5.84143C36.9135 5.69316 37.1081 5.73951 37.1452 5.66537H37.173Z" fill="#C6937E"/>
<path id="Vector_4" d="M20.5577 68.4668C20.4836 68.3464 20.5762 68.1332 20.7523 68.2352C25.2745 70.7372 30.7605 70.8577 35.2456 68.402C44.5681 63.2959 42.7147 52.6576 40.0737 43.7429L47.0145 43.0757C46.6438 49.127 49.5629 53.9642 49.2478 60.1545C48.942 66.2057 44.9017 71.1172 39.1099 72.6647C32.8548 74.342 24.7092 73.2115 20.5577 68.4761V68.4668Z" fill="#F0D6BF"/>
</g>
</g>
</svg>
